<svg xmlns="http://www.w3.org/2000/svg" viewBox="0 0 32 32">
  <defs>
    <linearGradient id="bg-gradient" x1="0%" y1="0%" x2="100%" y2="0%">
      <stop offset="0%" style="stop-color:#3b82f6"/>
      <stop offset="100%" style="stop-color:#6366f1"/>
    </linearGradient>
  </defs>
  <rect width="32" height="32" rx="6" fill="url(#bg-gradient)"/>
  <path 
    fill="none" 
    stroke="white" 
    stroke-width="2" 
    stroke-linecap="round" 
    stroke-linejoin="round" 
    transform="translate(4, 4)"
    d="M12 6.253v13m0-13C10.832 5.477 9.246 5 7.5 5S4.168 5.477 3 6.253v13C4.168 18.477 5.754 18 7.5 18s3.332.477 4.5 1.253m0-13C13.168 5.477 14.754 5 16.5 5c1.746 0 3.332.477 4.5 1.253v13C19.832 18.477 18.246 18 16.5 18c-1.746 0-3.332.477-4.5 1.253"
  />
</svg>
